<svg xmlns="http://www.w3.org/2000/svg" viewBox="0 0 500 500">
    <path style="fill-rule:evenodd;fill:#2c2c2c" d="m97.357 434.7c2.024 12.11 12.533 21.31 25.203 21.31h261.31c12.67 0 23.18-9.2 25.21-21.31h-311.72zm25.203-198.82c-14.13 0-25.558 11.44-25.558 25.57v155.5h312.43v-155.5c0-14.13-11.43-25.57-25.56-25.57h-15.59c0.22-2.94 0.32-66.24 0.32-69.23 0-63.72-51.66-115.38-115.38-115.38-63.73-0.002-115.39 51.66-115.39 115.38 0 2.99 0.11 66.29 0.32 69.23h-15.59zm175.96 0h-90.61c-0.56-2.87-0.85-66.17-0.85-69.23 0-25.49 20.67-46.15 46.16-46.15s46.15 20.66 46.15 46.15c0 3.06-0.28 66.36-0.85 69.23z"/>
</svg>